# xmcd CD database file
#
# Track frame offsets:
#	150
#	28190
#	54517
#	88283
#	108312
#	127971
#	151088
#	174650
#	192866
#	211876
#	230104
#	250093
#	269634
#
# Disc length: 3841 seconds
#
# Revision: 0
# Processed by: cddbd v1.5.2PL0 Copyright (c) Steve Scherf et al.
# Submitted via: CDex 1.70beta2
#
DISCID=b50eff0d
DTITLE=Bjork - Volta
DYEAR=1900
DGENRE=New Age
TTITLE0=Earth Intruders
TTITLE1=Wanderlust
TTITLE2=The Dull Flame of Desire
TTITLE3=Innocence
TTITLE4=I See Who You Are
TTITLE5=Vertabrae By Vertabrae
TTITLE6=Pneumonia
TTITLE7=Hope
TTITLE8=Declare Independence
TTITLE9=My Juvenile
TTITLE10=Earth Intruders (Mark Stent Extended Mix)
TTITLE11=Innocence (Mark Stent Mix)
TTITLE12=I See Who You Are (Mark Bell Mix)
EXTD=
EXTT0=
EXTT1=
EXTT2=
EXTT3=
EXTT4=
EXTT5=
EXTT6=
EXTT7=
EXTT8=
EXTT9=
EXTT10=
EXTT11=
EXTT12=
PLAYORDER=
